<svg width="54" height="37" viewBox="0 0 54 37" fill="none" xmlns="http://www.w3.org/2000/svg">
<path d="M47.25 28.1816V18.0683C47.8585 17.8364 48.3802 17.5109 48.774 17.1174C49.1677 16.7239 49.4229 16.2731 49.5193 15.8006C49.6157 15.3281 49.5507 14.8467 49.3295 14.3943C49.1084 13.9419 48.737 13.5309 48.2446 13.1935C47.7522 12.8561 47.1523 12.6017 46.492 12.4501C45.8318 12.2985 45.1292 12.254 44.4396 12.3201C43.75 12.3862 43.0922 12.561 42.5179 12.8308C41.9436 13.1006 41.4685 13.458 41.13 13.875H33.75V8.81829C34.3585 8.58637 34.8802 8.26085 35.274 7.86736C35.6677 7.47387 35.9229 7.02313 36.0193 6.55062C36.1157 6.0781 36.0507 5.59671 35.8295 5.14431C35.6084 4.69191 35.237 4.28086 34.7446 3.94349C34.2522 3.60613 33.6523 3.35165 32.992 3.2001C32.3318 3.04855 31.6292 3.00404 30.9396 3.0701C30.25 3.13615 29.5922 3.31096 29.0179 3.58076C28.4436 3.85057 27.9685 4.20801 27.63 4.62495H12.87C12.5315 4.20801 12.0565 3.85057 11.4822 3.58076C10.9079 3.31096 10.2501 3.13615 9.56045 3.0701C8.87084 3.00404 8.16826 3.04855 7.508 3.2001C6.84775 3.35165 6.24783 3.60613 5.75546 3.94349C5.26309 4.28086 4.89169 4.69191 4.67051 5.14431C4.44932 5.59671 4.38437 6.0781 4.48077 6.55062C4.57718 7.02313 4.8323 7.47387 5.22607 7.86736C5.61984 8.26085 6.1415 8.58637 6.75002 8.81829V18.9316C6.1415 19.1635 5.61984 19.4891 5.22607 19.8825C4.8323 20.276 4.57718 20.7268 4.48077 21.1993C4.38437 21.6718 4.44932 22.1532 4.67051 22.6056C4.89169 23.058 5.26309 23.469 5.75546 23.8064C6.24783 24.1438 6.84775 24.3983 7.508 24.5498C8.16826 24.7014 8.87084 24.7459 9.56045 24.6798C10.2501 24.6138 10.9079 24.4389 11.4822 24.1691C12.0565 23.8993 12.5315 23.5419 12.87 23.125H20.25V28.1816C19.6415 28.4135 19.1198 28.7391 18.7261 29.1325C18.3323 29.526 18.0772 29.9768 17.9808 30.4493C17.8844 30.9218 17.9493 31.4032 18.1705 31.8556C18.3917 32.308 18.7631 32.719 19.2555 33.0564C19.7478 33.3938 20.3477 33.6483 21.008 33.7998C21.6683 33.9514 22.3708 33.9959 23.0605 33.9298C23.7501 33.8638 24.4079 33.6889 24.9822 33.4191C25.5565 33.1493 26.0315 32.7919 26.37 32.375H41.13C41.4685 32.7919 41.9436 33.1493 42.5179 33.4191C43.0922 33.6889 43.75 33.8638 44.4396 33.9298C45.1292 33.9959 45.8318 33.9514 46.492 33.7998C47.1523 33.6483 47.7522 33.3938 48.2446 33.0564C48.737 32.719 49.1084 32.308 49.3295 31.8556C49.5507 31.4032 49.6157 30.9218 49.5193 30.4493C49.4229 29.9768 49.1677 29.526 48.774 29.1325C48.3802 28.7391 47.8585 28.4135 47.25 28.1816ZM18 15.4166C18.0048 15.9547 18.2149 16.4826 18.6097 16.9478C19.0044 17.4129 19.5699 17.7993 20.25 18.0683V20.0416H12.87C12.4866 19.578 11.9267 19.1944 11.25 18.9316V8.81829C11.9267 8.55554 12.4866 8.17191 12.87 7.70829H27.63C28.0135 8.17191 28.5734 8.55554 29.25 8.81829V13.875H26.37C25.8689 13.2962 25.1053 12.8457 24.1956 12.5921C23.2858 12.3385 22.28 12.2958 21.3316 12.4705C20.3831 12.6452 19.5441 13.0277 18.9426 13.5596C18.3411 14.0915 18.01 14.7437 18 15.4166V15.4166ZM29.25 16.9583V18.9316C28.5734 19.1944 28.0135 19.578 27.63 20.0416H24.75V18.0683C25.4267 17.8055 25.9866 17.4219 26.37 16.9583H29.25ZM42.75 28.1816C42.0734 28.4444 41.5135 28.828 41.13 29.2916H26.37C25.9866 28.828 25.4267 28.4444 24.75 28.1816V23.125H27.63C27.9685 23.5419 28.4436 23.8993 29.0179 24.1691C29.5922 24.4389 30.25 24.6138 30.9396 24.6798C31.6292 24.7459 32.3318 24.7014 32.992 24.5498C33.6523 24.3983 34.2522 24.1438 34.7446 23.8064C35.237 23.469 35.6084 23.058 35.8295 22.6056C36.0507 22.1532 36.1157 21.6718 36.0193 21.1993C35.9229 20.7268 35.6677 20.276 35.274 19.8825C34.8802 19.4891 34.3585 19.1635 33.75 18.9316V16.9583H41.13C41.5135 17.4219 42.0734 17.8055 42.75 18.0683V28.1816Z" fill="#5956E8"/>
</svg>
